<svg id="SvgjsSvg1383" width="288" height="288" xmlns="http://www.w3.org/2000/svg" version="1.1" xmlns:xlink="http://www.w3.org/1999/xlink" xmlns:svgjs="http://svgjs.com/svgjs"><defs id="SvgjsDefs1384"></defs><g id="SvgjsG1385"><svg xmlns="http://www.w3.org/2000/svg" viewBox="0 0 64 64" width="288" height="288"><circle cx="32" cy="32" r="32" fill="#ff5959" class="colorb9eaf8 svgShape"></circle><path fill="#ffffff" d="M44,16H22a4,4,0,0,0,0,8H34.344L17.172,41.172a4,4,0,1,0,5.656,5.656L40,29.656V42a4,4,0,0,0,8,0V20A4,4,0,0,0,44,16Z" class="colorfff svgShape"></path><path fill="#ff5959" d="M32,0A32,32,0,1,0,64,32,32,32,0,0,0,32,0Zm0,62A30,30,0,1,1,62,32,30,30,0,0,1,32,62Z" class="color9bdbf1 svgShape"></path><path fill="#ff5959" d="M32,3A29.994,29.994,0,0,1,61.987,32.5c0-.167.013-.332.013-.5A30,30,0,0,0,2,32c0,.168.01.333.013.5A29.994,29.994,0,0,1,32,3Z" class="colord7f8ff svgShape"></path></svg></g></svg>