<svg id="SvgjsSvg1335" width="288" height="288" xmlns="http://www.w3.org/2000/svg" version="1.1" xmlns:xlink="http://www.w3.org/1999/xlink" xmlns:svgjs="http://svgjs.com/svgjs"><defs id="SvgjsDefs1336"></defs><g id="SvgjsG1337"><svg xmlns="http://www.w3.org/2000/svg" viewBox="0 0 64 64" width="288" height="288"><circle cx="32" cy="32" r="32" fill="#ff5959" class="coloreecf64 svgShape"></circle><path fill="#ffffff" d="M46.828,17.172a4,4,0,0,0-5.656,0L24,34.344V22a4,4,0,0,0-8,0V44a4,4,0,0,0,4,4H42a4,4,0,0,0,0-8H29.656L46.828,22.828A4,4,0,0,0,46.828,17.172Z" class="colorfff svgShape"></path><path fill="#ff5959" d="M32,0A32,32,0,1,0,64,32,32,32,0,0,0,32,0Zm0,62A30,30,0,1,1,62,32,30,30,0,0,1,32,62Z" class="colorebbf52 svgShape"></path><path fill="#ff5959" d="M32,3A29.994,29.994,0,0,1,61.987,32.5c0-.167.013-.332.013-.5A30,30,0,0,0,2,32c0,.168.01.333.013.5A29.994,29.994,0,0,1,32,3Z" class="colorf2e075 svgShape"></path></svg></g></svg>